<svg width="14" height="14" viewBox="0 0 14 14" fill="none" xmlns="http://www.w3.org/2000/svg">
<path d="M12.953 3.23742C10.8588 -0.000107021 6.58305 -0.962614 3.26718 1.0499C0.0385801 3.06242 -1.00853 7.43745 1.08569 10.675L1.26021 10.9375L0.562138 13.5625L3.17992 12.8625L3.4417 13.0375C4.57608 13.65 5.79771 14 7.01934 14C8.32824 14 9.63713 13.65 10.7715 12.95C14.0001 10.85 14.96 6.56244 12.953 3.23742ZM11.1205 9.97497C10.7715 10.5 10.3352 10.85 9.72439 10.9375C9.37535 10.9375 8.93905 11.1125 7.19386 10.4125C5.71045 9.71247 4.48882 8.57496 3.61622 7.26245C3.09266 6.64994 2.83089 5.86244 2.74363 5.07493C2.74363 4.37493 3.0054 3.76242 3.4417 3.32492C3.61622 3.14992 3.79074 3.06242 3.96526 3.06242H4.40156C4.57608 3.06242 4.7506 3.06242 4.83786 3.41242C5.01237 3.84992 5.44867 4.89993 5.44867 4.98743C5.53593 5.07493 5.53593 5.24993 5.44867 5.33743C5.53593 5.51244 5.44867 5.68744 5.36141 5.77494C5.27415 5.86244 5.18689 6.03744 5.09963 6.12494C4.92512 6.21244 4.83785 6.38744 4.92511 6.56244C5.27415 7.08745 5.71045 7.61245 6.14675 8.04995C6.67031 8.48746 7.19386 8.83746 7.80468 9.09996C7.9792 9.18746 8.15372 9.18746 8.24098 9.01246C8.32824 8.83746 8.76453 8.39996 8.93905 8.22496C9.11357 8.04995 9.20083 8.04995 9.37535 8.13745L10.7715 8.83746C10.946 8.92496 11.1205 9.01246 11.2078 9.09996C11.2951 9.36246 11.2951 9.71247 11.1205 9.97497Z" fill="white"/>
</svg>
