<svg width="19" height="12" viewBox="0 0 19 12" fill="none" xmlns="http://www.w3.org/2000/svg">
<path fill-rule="evenodd" clip-rule="evenodd" d="M18.4942 1.69101C18.6251 1.2604 18.4942 0.943359 17.8672 0.943359H15.7969C15.2701 0.943359 15.0272 1.21703 14.8955 1.51908C14.8955 1.51908 13.8426 4.03965 12.3513 5.67692C11.8686 6.15169 11.6494 6.30233 11.3859 6.30233C11.2542 6.30233 11.0563 6.15169 11.0563 5.7203V1.69101C11.0563 1.17365 10.9112 0.943359 10.4727 0.943359H7.21706C6.88819 0.943359 6.69023 1.18311 6.69023 1.41104C6.69023 1.9008 7.43631 2.01436 7.51281 3.39295V6.38829C7.51281 7.04525 7.39214 7.16434 7.12873 7.16434C6.42682 7.16434 4.71936 4.63194 3.70593 1.73439C3.50955 1.17049 3.31081 0.943359 2.78162 0.943359H0.709797C0.1183 0.943359 0 1.21703 0 1.51908C0 2.05695 0.70191 4.72895 3.26901 8.26295C4.98041 10.6763 7.38978 11.9847 9.58463 11.9847C10.9009 11.9847 11.0634 11.6944 11.0634 11.1936V9.36944C11.0634 8.7882 11.188 8.67226 11.6052 8.67226C11.9128 8.67226 12.4388 8.82369 13.6675 9.98697C15.0714 11.3663 15.3024 11.9847 16.0927 11.9847H18.1629C18.7544 11.9847 19.051 11.6944 18.8806 11.1203C18.6929 10.5493 18.0225 9.7204 17.1337 8.73693C16.6511 8.17698 15.9271 7.57366 15.707 7.2716C15.4002 6.88436 15.4878 6.71165 15.707 6.367C15.707 6.367 18.2307 2.87637 18.4934 1.69101H18.4942Z" fill="url(#paint0_linear_48_7)"/>
<defs>
<linearGradient id="paint0_linear_48_7" x1="27.3661" y1="25.9783" x2="33.4745" y2="17.2438" gradientUnits="userSpaceOnUse">
<stop stop-color="#C6711E"/>
<stop offset="0.17369" stop-color="#CB7D2F"/>
<stop offset="0.304278" stop-color="#DEA86F"/>
<stop offset="0.444982" stop-color="#E2B472"/>
<stop offset="0.596368" stop-color="#F1CA80"/>
<stop offset="0.734864" stop-color="#E3B673"/>
<stop offset="0.83875" stop-color="#DEA86F"/>
<stop offset="0.971453" stop-color="#C6711E"/>
</linearGradient>
</defs>
</svg>
