<svg width="16" height="17" viewBox="0 0 16 17" fill="none" xmlns="http://www.w3.org/2000/svg">
<path fill-rule="evenodd" clip-rule="evenodd" d="M-0.000244141 8.50853C-0.000244141 12.4859 2.88842 15.7932 6.66642 16.4639V10.6859H4.66642V8.46387H6.66642V6.68587C6.66642 4.68587 7.95509 3.5752 9.77776 3.5752C10.3551 3.5752 10.9778 3.66387 11.5551 3.75253V5.7972H10.5331C9.55509 5.7972 9.33309 6.28587 9.33309 6.90853V8.46387H11.4664L11.1111 10.6859H9.33309V16.4639C13.1111 15.7932 15.9998 12.4865 15.9998 8.50853C15.9998 4.08387 12.3998 0.463867 7.99976 0.463867C3.59976 0.463867 -0.000244141 4.08387 -0.000244141 8.50853Z" fill="url(#paint0_linear_48_9)"/>
<defs>
<linearGradient id="paint0_linear_48_9" x1="23.1322" y1="36.7421" x2="32.403" y2="29.0092" gradientUnits="userSpaceOnUse">
<stop stop-color="#C6711E"/>
<stop offset="0.17369" stop-color="#CB7D2F"/>
<stop offset="0.304278" stop-color="#DEA86F"/>
<stop offset="0.444982" stop-color="#E2B472"/>
<stop offset="0.596368" stop-color="#F1CA80"/>
<stop offset="0.734864" stop-color="#E3B673"/>
<stop offset="0.83875" stop-color="#DEA86F"/>
<stop offset="0.971453" stop-color="#C6711E"/>
</linearGradient>
</defs>
</svg>
